<svg width="1754" height="618" viewBox="0 0 1754 618" fill="none" xmlns="http://www.w3.org/2000/svg">
<path d="M844.625 509.283V415.547C844.625 399.292 837.889 387.1 816.185 387.1H757.702V416.349H803.997V509.283H757.702V539.655H890.438V509.283H844.625Z" fill="#ED2A2A"/>
<path d="M1061.93 341.863H1102.56V539.656H1061.93L1065.19 501.156C1056.26 519.336 1021.03 541.794 983.401 541.794C941.436 541.794 902.145 513.882 902.145 461.319C902.145 408.757 941.704 384.106 984.523 384.106C1020.29 384.106 1048.46 401.431 1066.31 431.268L1061.98 341.863H1061.93ZM1061.93 462.442C1061.93 434.53 1041.62 409.612 999.331 409.612C957.046 409.612 942.719 433.461 942.719 463.779C942.719 498.482 963.033 517.999 997.46 517.999C1035.68 517.999 1061.93 493.884 1061.93 462.442Z" fill="#ED2A2A"/>
<path d="M1176.49 465.65V472.174C1177.03 502.225 1194.99 519.603 1226.42 519.603C1248.34 519.603 1272.13 508.053 1279.72 483.67H1315.48C1306.02 523.507 1267.85 543.719 1225.62 543.719C1173.87 543.719 1136.45 516.074 1136.45 464.313C1136.45 412.552 1180.87 384.105 1229.36 384.105C1281.91 384.105 1316.87 415.012 1315.48 465.65H1176.49ZM1275.92 449.929C1275.12 425.011 1260.21 407.633 1229.04 407.633C1195.2 407.633 1182.16 427.685 1178.09 449.929H1275.87H1275.92Z" fill="#ED2A2A"/>
<path d="M1405.77 446.4C1441.27 446.4 1468.1 462.388 1486.49 474.58C1486.76 469.714 1486.49 458.859 1486.49 454.528C1486.49 427.418 1473.23 416.349 1438.27 416.349H1359.16L1358.89 387.1H1452.6C1504.08 387.1 1527.12 408.489 1527.12 458.378V509.604H1553.96V539.976L1486.49 539.709V491.21H1488.36C1470.19 531.848 1433.62 542.436 1408.18 542.436C1374.87 542.436 1342.37 523.988 1342.37 491.477C1342.37 458.966 1372.73 446.507 1405.77 446.507V446.4ZM1423.63 519.015C1462.38 519.015 1478.9 486.772 1478.9 486.772C1478.9 486.772 1447.74 466.452 1420.37 466.452C1408.71 466.452 1383 470.249 1383 491.905C1383 509.765 1403.04 519.015 1423.63 519.015Z" fill="#ED2A2A"/>
<path d="M1752.77 496.022C1752.77 526.661 1719.46 543.452 1660.66 543.452C1586.99 543.452 1569.62 510.139 1569.62 490.621H1608.64C1610.25 510.139 1635.75 518.534 1661.99 518.534C1702.89 518.534 1717.27 511.743 1717.27 496.022C1717.27 456.453 1580.74 498.214 1580.74 431.802C1580.74 402.019 1610.51 384.105 1666.32 384.105C1713.21 384.105 1753.03 399.826 1753.03 439.663H1716.2C1714.01 418.274 1695.62 409.291 1666.38 409.291C1637.14 409.291 1619.5 415.28 1619.5 433.407C1619.5 472.441 1752.77 433.139 1752.77 496.022Z" fill="#ED2A2A"/>
<path d="M631.554 121.862L377.159 12.7255C350.608 1.33592 321.44 -2.51408 292.859 1.60328L58.8709 35.0235C25.1083 39.8894 0 68.8179 0 102.987V437.723C0 461.839 12.661 484.191 33.2818 496.596L209.948 602.685C229.714 614.556 252.792 619.582 275.657 617.016L612.215 579.585C646.939 575.735 673.223 546.325 673.223 511.354L673.116 184.96C673.116 157.528 656.769 132.717 631.554 121.862Z" fill="#ED2A2A"/>
<path d="M165.971 160.482C143.204 163.755 126.327 183.203 126.327 206.204" stroke="white" stroke-width="17" stroke-miterlimit="10"/>
<path d="M154.767 118.222C121.996 122.897 96.3302 147.394 89.2242 178.482C87.9152 184.139 87.2607 190.03 87.2607 196.06" stroke="white" stroke-width="17" stroke-miterlimit="10"/>
<path d="M143.581 76.0059C88.8372 83.813 48.165 130.75 48.165 186.054" stroke="white" stroke-width="17" stroke-miterlimit="10"/>
<path d="M540.281 390.901V337.411L433.3 417.646L573.123 436.26C584.945 437.812 593.771 447.921 593.771 459.85V491.516C593.771 507.777 577.831 519.277 562.425 514.089L493.209 491.034C457.424 479.106 433.3 445.621 433.3 407.911C433.3 380.31 446.298 354.367 468.336 337.785L533.915 288.628C538.034 285.525 543.062 283.867 548.197 283.867H576.119C589.277 283.867 599.922 294.512 599.922 307.67V379.721C599.922 390.901 592.166 400.529 581.254 402.99L546.378 410.746L433.247 417.592L540.227 390.847L540.281 390.901Z" fill="white"/>
</svg>
